<svg id="Layer_1" data-name="Layer 1" xmlns="http://www.w3.org/2000/svg" width="72" height="72" viewBox="0 0 72 72"><defs><style>.cls-1{fill:#d10869;}</style></defs><title>icon-inst</title><path class="cls-1" d="M36,14.48c-7,0-7.84,0-10.61.15-3,.14-5.76.74-7.89,2.87s-2.73,4.9-2.87,7.89c-.12,2.77-.15,3.6-.15,10.61s0,7.84.15,10.61c.14,3,.74,5.76,2.87,7.89s4.9,2.73,7.89,2.87c2.77.12,3.6.15,10.61.15s7.84,0,10.61-.15c3-.14,5.76-.74,7.89-2.87s2.73-4.9,2.87-7.89c.12-2.77.15-3.6.15-10.61s0-7.84-.15-10.61c-.14-3-.74-5.76-2.87-7.89s-4.9-2.73-7.89-2.87C43.84,14.51,43,14.48,36,14.48Zm0-4.73c7.13,0,8,0,10.82.16,4.27.19,8,1.24,11,4.25s4.06,6.75,4.25,11c.13,2.8.16,3.69.16,10.82s0,8-.16,10.82c-.19,4.27-1.24,8-4.25,11s-6.75,4.06-11,4.25c-2.8.13-3.69.16-10.82.16s-8,0-10.82-.16c-4.27-.19-8-1.24-11-4.25s-4.06-6.75-4.25-11C9.78,44,9.75,43.13,9.75,36s0-8,.16-10.82c.19-4.27,1.24-8,4.25-11s6.75-4.06,11-4.25C28,9.78,28.87,9.75,36,9.75Zm0,12.77A13.48,13.48,0,1,1,22.52,36,13.49,13.49,0,0,1,36,22.52Zm0,22.23A8.75,8.75,0,1,0,27.25,36,8.75,8.75,0,0,0,36,44.75ZM50,25.14A3.15,3.15,0,1,1,53.16,22,3.15,3.15,0,0,1,50,25.14Z"/></svg>