<?xml version="1.0" encoding="utf-8"?>
<!-- Generator: Adobe Illustrator 22.1.0, SVG Export Plug-In . SVG Version: 6.00 Build 0)  -->
<svg version="1.1" id="Layer_1" xmlns="http://www.w3.org/2000/svg" xmlns:xlink="http://www.w3.org/1999/xlink" x="0px" y="0px"
	 viewBox="0 0 72 72" style="enable-background:new 0 0 72 72;" xml:space="preserve">
<style type="text/css">
	.st0{clip-path:url(#SVGID_2_);}
	.st1{fill:#FFFFFF;}
</style>
<title>icon-user</title>
<g>
	<defs>
		<rect id="SVGID_1_" x="1" y="1" width="70" height="70"/>
	</defs>
	<clipPath id="SVGID_2_">
		<use xlink:href="#SVGID_1_"  style="overflow:visible;"/>
	</clipPath>
	<g class="st0">
		<path class="st1" d="M36,38.2c-9.7,0-17.5-7.8-17.5-17.5S26.3,3.2,36,3.2S53.5,11,53.5,20.7C53.5,30.4,45.7,38.2,36,38.2z M36,7.6
			c-7.3,0-13.1,5.9-13.1,13.1S28.7,33.8,36,33.8S49.1,28,49.1,20.7c0,0,0,0,0,0C49.1,13.4,43.2,7.6,36,7.6z"/>
		<path class="st1" d="M68.8,75.4h-4.4c0-15.7-12.7-28.4-28.4-28.4S7.6,59.7,7.6,75.4H3.2c0-18.1,14.7-32.8,32.8-32.8
			S68.8,57.2,68.8,75.4z"/>
	</g>
</g>
</svg>
