<svg id="Layer_1" data-name="Layer 1" xmlns="http://www.w3.org/2000/svg" width="72" height="72" viewBox="0 0 72 72"><defs><style>.cls-1{fill:#c2a578;}</style></defs><title>icon-mail</title><path class="cls-1" d="M14.79,27.17c.66.46,2.66,1.86,6,4.17s5.9,4.1,7.68,5.35c.2.13.61.43,1.25.89s1.16.83,1.58,1.11.93.6,1.52,1a9.32,9.32,0,0,0,1.69.79A4.74,4.74,0,0,0,36,40.7H36a4.74,4.74,0,0,0,1.46-.26,9.32,9.32,0,0,0,1.69-.79c.59-.36,1.1-.67,1.52-1s.95-.65,1.58-1.11,1-.76,1.25-.89l13.71-9.53a13.58,13.58,0,0,0,3.57-3.6,7.71,7.71,0,0,0,1.44-4.42,4.48,4.48,0,0,0-1.39-3.31,4.54,4.54,0,0,0-3.3-1.38H14.44A4.19,4.19,0,0,0,11,16a5.94,5.94,0,0,0-1.22,3.81,6.86,6.86,0,0,0,1.61,4A14.62,14.62,0,0,0,14.79,27.17Z"/><path class="cls-1" d="M59.32,32.15q-9.62,6.49-14.59,10.11c-1.11.82-2,1.46-2.71,1.92a17.62,17.62,0,0,1-2.77,1.4A8.38,8.38,0,0,1,36,46.3H36a8.38,8.38,0,0,1-3.22-.72A17.62,17.62,0,0,1,30,44.18c-.69-.46-1.6-1.1-2.71-1.92q-4-2.91-14.56-10.11a15.49,15.49,0,0,1-3-2.55V52.86a4.71,4.71,0,0,0,4.69,4.69H57.56a4.71,4.71,0,0,0,4.69-4.69V29.6A16.12,16.12,0,0,1,59.32,32.15Z"/></svg>