<?xml version="1.0" encoding="utf-8"?>
<!-- Generator: Adobe Illustrator 22.1.0, SVG Export Plug-In . SVG Version: 6.00 Build 0)  -->
<svg version="1.1" id="Layer_1" xmlns="http://www.w3.org/2000/svg" xmlns:xlink="http://www.w3.org/1999/xlink" x="0px" y="0px"
	 viewBox="0 0 72 72" style="enable-background:new 0 0 72 72;" xml:space="preserve">
<style type="text/css">
	.st0{fill:#FFFFFF;}
</style>
<title>icon-search</title>
<path class="st0" d="M29.8,56C15.3,56,3.5,44.3,3.5,29.8S15.2,3.5,29.7,3.5S56,15.2,56,29.7c0,0,0,0,0,0C56,44.2,44.2,56,29.8,56z
	 M29.8,7.9c-12.1,0-21.9,9.8-21.9,21.9s9.8,21.9,21.9,21.9s21.9-9.8,21.9-21.9C51.6,17.7,41.8,7.9,29.8,7.9L29.8,7.9z"/>
<rect x="53.8" y="40.5" transform="matrix(0.7071 -0.7071 0.7071 0.7071 -23.2036 56.0086)" class="st0" width="4.4" height="30.9"/>
</svg>
