<svg id="Layer_1" data-name="Layer 1" xmlns="http://www.w3.org/2000/svg" width="72" height="72" viewBox="0 0 72 72"><defs><style>.cls-1{fill:#4064ac;}</style></defs><title>icon-fb</title><path class="cls-1" d="M57.87,9.75H14.13a4.38,4.38,0,0,0-4.38,4.38V57.88a4.38,4.38,0,0,0,4.38,4.37H38.19V42.56H31.63V33.81h6.56V28.15c0-6.78,4.14-10.47,10.19-10.47a57.9,57.9,0,0,1,6.11.31v7.09H50.3c-3.29,0-3.93,1.57-3.93,3.86v4.87h9.71L53.9,42.56H46.37V62.25h11.5a4.38,4.38,0,0,0,4.38-4.37V14.13A4.38,4.38,0,0,0,57.87,9.75Z"/></svg>